<?xml version="1.0" encoding="UTF-8"?>
<svg width="78px" height="78px" viewBox="0 0 78 78" version="1.1" xmlns="http://www.w3.org/2000/svg" xmlns:xlink="http://www.w3.org/1999/xlink">
    <!-- Generator: Sketch 43.2 (39069) - http://www.bohemiancoding.com/sketch -->
    <title>gitduck-extension-tree-icon</title>
    <desc>Created with Sketch.</desc>
    <defs></defs>
    <g id="Page-1" stroke="none" stroke-width="1" fill="none" fill-rule="evenodd">
        <g id="gitduck-extension-tree-icon">
            <g id="Icon-GitDuck" transform="translate(3.000000, 5.000000)">
                <path d="M10.5746495,16.2423388 C11.4438812,7.12778432 19.0920623,-5.61328761e-13 28.3984592,-5.61328761e-13 C38.2877252,-5.61328761e-13 46.3045592,8.04858471 46.3045592,17.9770171 C46.3045592,20.3939471 45.829476,22.699476 44.9679496,24.8046128 C44.9509182,24.8864268 44.93328,24.9669081 44.9150136,25.045995 C43.728643,30.1825566 48.8845746,32.235273 51.0302522,33.5149291 C51.0302522,33.5149291 58.5893092,38.2223554 61.0991113,39.21921 C63.9338069,40.3451073 66.2563419,37.8972619 68.7736055,35.15501 C69.4812065,34.3841648 71.2251506,35.0912077 71.2173653,36.1674839 C71.2173653,44.3474957 63.3516513,67.2152433 44.9150136,67.2152433 C37.435726,67.2152433 32.6698081,67.2396009 25.4332148,67.197096 C25.1385793,67.2112523 24.8421171,67.2184113 24.5439893,67.2184113 C14.4397368,67.2184113 6.24862174,58.9948554 6.24862174,48.850585 C6.24862174,43.506266 8.52207558,38.6950436 12.1510007,35.338536 C13.6907409,33.6884064 15.0156929,32.6309743 15.0156929,30.8111261 C15.0156929,30.5357984 15.014026,30.2764795 15.0099248,30.0317086 C5.9951346,28.4525597 2.82662451,22.5235444 1.90254828,21.0583055 C-0.00122420205,18.0396351 0.795458198,16.3641105 1.89309228,16.2253434 L10.5746495,16.2423388 Z" id="Combined-Shape" stroke="#000000" stroke-width="5.9000001" fill-rule="nonzero"></path>
                <path d="M14.1554688,12.9895205 C14.1554688,12.9895205 12.086149,20.341152 16.8414277,25.5012059 C19.0371316,27.8838109 18.4047541,31.6390977 17.4983343,33.445653 C16.5919144,35.2522083 16.4479397,32.0400131 15.6840242,31.6245972 C12.2262788,29.7442815 5.09381911,24.4745409 5.03763789,24.3246696 C4.96904462,24.1416874 2.26249809,19.0078025 2.26249809,19.0078025 L2.26249809,17.3066845 L3.50111785,16.9954268 L9.45368429,16.9954268 L11.2358167,14.6048152 L14.1554688,12.9895205 Z" id="Path-5" fill="#000000"></path>
                <path d="M41.9107014,48.9883206 L29.9107014,55.7469524 C27.5189047,57.0940584 24.5619361,55.3657664 24.5619361,52.6207007 L24.5619361,39.1034373 C24.5619361,36.3583715 27.5189047,34.6300795 29.9107014,35.9771856 L41.9107014,42.7358173 C44.3470143,44.1079958 44.3470143,47.6161422 41.9107014,48.9883206 Z" id="Triangle" fill="#000000" fill-rule="nonzero"></path>
            </g>
        </g>
    </g>
</svg>